<svg xmlns="http://www.w3.org/2000/svg" width="45.845" height="29" viewBox="0 0 45.845 29">
    <defs>
        <style>
            .prefix__cls-1{fill:#fff}
        </style>
    </defs>
    <g id="prefix__truck_1_" data-name="truck (1)" transform="translate(0 -94.062)">
        <path id="prefix__Path_718" d="M70.551 102.079H42.987a.766.766 0 0 0-.766.766v16.079h2.3a1.531 1.531 0 1 1 0 3.063h-2.3v2.3a.766.766 0 0 0 .766.766h28.33v-22.2a.766.766 0 0 0-.766-.774z" class="prefix__cls-1" data-name="Path 718" transform="translate(-38.44 -7.299)"/>
        <path id="prefix__Path_719" d="M376.353 238.9h-9.188v10.719h12.251v-7.657a3.063 3.063 0 0 0-3.063-3.062z" class="prefix__cls-1" data-name="Path 719" transform="translate(-334.289 -131.867)"/>
        <path id="prefix__Path_720" d="M367.165 264.551h8.295a1.531 1.531 0 0 1 1.531 1.531v6.891h-9.826z" class="prefix__cls-1" data-name="Path 720" transform="translate(-334.289 -155.223)"/>
        <path id="prefix__Path_721" d="M373.29 136.284h-6.125v3.063h8.423v-.766a2.3 2.3 0 0 0-2.298-2.297z" class="prefix__cls-1" data-name="Path 721" transform="translate(-334.289 -38.441)"/>
        <path id="prefix__Path_722" d="M376.353 176.614l-1.531-6.125h-7.657v6.125z" class="prefix__cls-1" data-name="Path 722" transform="translate(-334.289 -69.584)"/>
        <path id="prefix__Path_723" d="M469.779 273.1h3.063v3.063h-1.532a1.531 1.531 0 0 1-1.531-1.531V273.1z" data-name="Path 723" transform="translate(-427.714 -163.009)" style="fill:#f1f4fb"/>
        <path id="prefix__Path_724" d="M372.525 298.756a6.122 6.122 0 0 0-5.36 3.162v2.2H378.6a6.123 6.123 0 0 0-6.075-5.362z" class="prefix__cls-1" data-name="Path 724" transform="translate(-334.289 -186.365)"/>
        <path id="prefix__Path_725" d="M476.9 320.412v3.421h1.606a6.11 6.11 0 0 0-1.606-3.421z" class="prefix__cls-1" data-name="Path 725" transform="translate(-434.202 -206.082)"/>
        <circle id="prefix__Ellipse_103" cx="3.828" cy="3.828" r="3.828" class="prefix__cls-1" data-name="Ellipse 103" transform="translate(34.408 114.688)"/>
        <path id="prefix__Path_726" d="M370.229 172.786h5.171l-.574-2.3h-7.657v6.125h2.3v-3.063a.766.766 0 0 1 .76-.762z" data-name="Path 726" transform="translate(-334.29 -69.584)" style="fill:#f4f4f4"/>
        <path id="prefix__Path_727" d="M51.409 298.756a6.11 6.11 0 0 0-4.777 2.3h-4.411v2.3a.766.766 0 0 0 .766.766h28.33v-3.063h-15.13a6.11 6.11 0 0 0-4.778-2.303z" class="prefix__cls-1" data-name="Path 727" transform="translate(-38.44 -186.365)"/>
        <circle id="prefix__Ellipse_104" cx="3.828" cy="3.828" r="3.828" class="prefix__cls-1" data-name="Ellipse 104" transform="translate(9.14 114.688)"/>
        <path id="prefix__Path_728" d="M42.636 106.356l-1.187-4.749a.718.718 0 0 0 .568-.7v-.766A3.018 3.018 0 0 0 39 97.125h-5.406v-1.579a1.485 1.485 0 0 0-1.484-1.484H4.546a1.485 1.485 0 0 0-1.484 1.484v13.017a.718.718 0 1 0 1.436 0V95.546a.048.048 0 0 1 .048-.048h27.565a.048.048 0 0 1 .048.048v13.017a.718.718 0 0 0 1.436 0v-.814h8.472a2.349 2.349 0 0 1 2.231 1.627h-2.234a.718.718 0 0 0-.718.718v1.531a2.252 2.252 0 0 0 2.249 2.249h.814v3.158h-1.877a4.545 4.545 0 0 0-8.593 0h-.346v-5.408a.718.718 0 0 0-1.436 0v5.407H17.265a4.545 4.545 0 0 0-8.593 0H4.546a.048.048 0 0 1-.048-.048v-1.579h3.111a.718.718 0 0 0 0-1.436H.718a.718.718 0 0 0 0 1.436h2.345v1.579a1.485 1.485 0 0 0 1.484 1.484h3.877v.048a4.546 4.546 0 0 0 9.092 0v-.048h16.175v.048a4.546 4.546 0 0 0 9.092 0v-.048h2.346a.718.718 0 0 0 .718-.718v-7.657a3.786 3.786 0 0 0-3.211-3.736zm-9.041-4.733h6.378l1.172 4.69h-7.551zM39 98.56a1.581 1.581 0 0 1 1.579 1.579v.048h-6.985V98.56H39zm-26.031 23.066a3.111 3.111 0 1 1 3.111-3.111 3.114 3.114 0 0 1-3.111 3.111zm25.267 0a3.111 3.111 0 1 1 3.111-3.111 3.114 3.114 0 0 1-3.111 3.111zm5.36-9.188a.814.814 0 0 1-.814-.814v-.814h1.627v1.627H43.6z" data-name="Path 728"/>
        <path id="prefix__Path_729" d="M129.751 350.6a1.484 1.484 0 1 0 1.484 1.484 1.485 1.485 0 0 0-1.484-1.484z" data-name="Path 729" transform="translate(-116.782 -233.565)"/>
        <path id="prefix__Path_730" d="M411.939 350.6a1.484 1.484 0 1 0 1.484 1.484 1.485 1.485 0 0 0-1.484-1.484z" data-name="Path 730" transform="translate(-373.702 -233.565)"/>
        <path id="prefix__Path_731" d="M205.228 317.11a.718.718 0 0 0 .718.718h10.719a.718.718 0 1 0 0-1.436h-10.719a.718.718 0 0 0-.718.718z" data-name="Path 731" transform="translate(-186.852 -202.422)"/>
        <path id="prefix__Path_732" d="M17.82 283.623h9.188a.718.718 0 1 0 0-1.436H17.82a.718.718 0 1 0 0 1.436z" data-name="Path 732" transform="translate(-15.571 -171.28)"/>
        <path id="prefix__Path_733" d="M156.3 171.234l-6.384 6.383-3.316-3.317a.718.718 0 1 0-1.015 1.015l3.828 3.828a.718.718 0 0 0 1.015 0l6.891-6.891a.718.718 0 1 0-1.015-1.015z" data-name="Path 733" transform="translate(-132.353 -70.07)"/>
    </g>
</svg>
